<mxfile host="app.diagrams.net" modified="2023-02-28T03:55:38.032Z" agent="5.0 (Macintosh; Intel Mac OS X 10_15_7) AppleWebKit/537.36 (KHTML, like Gecko) Chrome/109.0.0.0 Safari/537.36" version="20.7.4" etag="Wz_3Ml-uu8ILgKQpLamr" type="github">
  <diagram id="JQS98adouD-arWHO0Do0" name="第 1 页">
    <mxGraphModel dx="1188" dy="634" grid="1" gridSize="10" guides="1" tooltips="1" connect="1" arrows="1" fold="1" page="1" pageScale="1" pageWidth="827" pageHeight="1169" math="0" shadow="0">
      <root>
        <mxCell id="0" />
        <mxCell id="1" parent="0" />
        <mxCell id="q0y5MMTS7PHUt22KBqKI-1" value="" style="whiteSpace=wrap;html=1;aspect=fixed;" vertex="1" parent="1">
          <mxGeometry x="190" y="100" width="200" height="200" as="geometry" />
        </mxCell>
        <mxCell id="q0y5MMTS7PHUt22KBqKI-2" value="" style="endArrow=none;html=1;rounded=0;exitX=0;exitY=0.75;exitDx=0;exitDy=0;entryX=1;entryY=0.75;entryDx=0;entryDy=0;" edge="1" parent="1" source="q0y5MMTS7PHUt22KBqKI-1" target="q0y5MMTS7PHUt22KBqKI-1">
          <mxGeometry width="50" height="50" relative="1" as="geometry">
            <mxPoint x="390" y="350" as="sourcePoint" />
            <mxPoint x="440" y="300" as="targetPoint" />
          </mxGeometry>
        </mxCell>
        <mxCell id="q0y5MMTS7PHUt22KBqKI-3" value="" style="endArrow=none;html=1;rounded=0;exitX=0;exitY=0.75;exitDx=0;exitDy=0;entryX=1;entryY=0.75;entryDx=0;entryDy=0;" edge="1" parent="1">
          <mxGeometry width="50" height="50" relative="1" as="geometry">
            <mxPoint x="190" y="199.5" as="sourcePoint" />
            <mxPoint x="390" y="199.5" as="targetPoint" />
          </mxGeometry>
        </mxCell>
        <mxCell id="q0y5MMTS7PHUt22KBqKI-4" value="Hosts:ci92sj06dmzcmp085" style="text;html=1;strokeColor=none;fillColor=none;align=center;verticalAlign=middle;whiteSpace=wrap;rounded=0;" vertex="1" parent="1">
          <mxGeometry x="174" y="270" width="240" height="20" as="geometry" />
        </mxCell>
      </root>
    </mxGraphModel>
  </diagram>
</mxfile>
